<?xml version="1.0" encoding="utf-8"?>
<!-- Generator: Adobe Illustrator 15.1.0, SVG Export Plug-In . SVG Version: 6.00 Build 0)  -->
<!DOCTYPE svg PUBLIC "-//W3C//DTD SVG 1.1//EN" "http://www.w3.org/Graphics/SVG/1.1/DTD/svg11.dtd">
<svg version="1.1" id="Livello_1" xmlns="http://www.w3.org/2000/svg" xmlns:xlink="http://www.w3.org/1999/xlink" x="0px" y="0px"
	 width="595.28px" height="841.89px" viewBox="0 0 595.28 841.89" enable-background="new 0 0 595.28 841.89" xml:space="preserve">
<linearGradient id="SVGID_1_" gradientUnits="userSpaceOnUse" x1="826.832" y1="1219.2461" x2="826.832" y2="1067.6279" gradientTransform="matrix(-0.8947 0.4467 0.4467 0.8947 427.5582 -835.2483)">
	<stop  offset="0" style="stop-color:#1D71B8"/>
	<stop  offset="0.0705" style="stop-color:#007DC3"/>
	<stop  offset="0.1675" style="stop-color:#0089CE"/>
	<stop  offset="0.2742" style="stop-color:#0092D7"/>
	<stop  offset="0.3924" style="stop-color:#0098DD"/>
	<stop  offset="0.5281" style="stop-color:#009CE1"/>
	<stop  offset="0.6968" style="stop-color:#009EE3"/>
	<stop  offset="1" style="stop-color:#009FE3"/>
</linearGradient>
<path fill="url(#SVGID_1_)" d="M173.285,575.547c0,0.009-0.008,0.009-0.008,0.009c-0.006-0.107-0.012-0.215-0.029-0.326
	c-0.105-1.014-0.2-2.024-0.251-3.025c-1.767-20.058-1.824-58.664-8.297-82.898c15.479,19.735,46.31,42.984,61.274,56.45
	c0.765,0.643,1.523,1.327,2.268,2.024c0.081,0.069,0.159,0.144,0.245,0.21l-0.006,0.008c5.11,4.845,9.687,10.942,13.238,18.05
	c11.969,23.991,7.817,50.369-9.295,58.912c-17.104,8.538-40.688-3.982-52.667-27.982
	C176.204,589.87,174.087,582.552,173.285,575.547z"/>
<linearGradient id="SVGID_2_" gradientUnits="userSpaceOnUse" x1="814.3467" y1="1499.2363" x2="814.3467" y2="1335.9893" gradientTransform="matrix(-0.7966 0.6046 0.6046 0.7966 189.9206 -1066.2535)">
	<stop  offset="0" style="stop-color:#1D71B8"/>
	<stop  offset="0.055" style="stop-color:#1E74BB"/>
	<stop  offset="0.6948" style="stop-color:#2C9BD7"/>
	<stop  offset="1" style="stop-color:#36A9E1"/>
</linearGradient>
<path fill="url(#SVGID_2_)" d="M374.025,580.802c0,0.009-0.013,0.009-0.013,0.009c-0.021-0.107-0.054-0.228-0.087-0.339
	c-0.297-1.067-0.585-2.127-0.833-3.187c-5.573-21.089-12.656-62.44-24.139-86.938c20.503,17.646,58.425,35.604,77.241,46.646
	c0.948,0.512,1.896,1.072,2.837,1.653c0.107,0.054,0.214,0.12,0.305,0.178c0,0-0.008,0-0.008,0.008
	c6.473,4.041,12.583,9.536,17.753,16.352c17.456,22.997,17.716,52.195,0.569,65.207c-17.144,13.012-45.203,4.914-62.655-18.087
	C379.826,595.487,376.177,588.124,374.025,580.802z"/>
<linearGradient id="SVGID_3_" gradientUnits="userSpaceOnUse" x1="739.8115" y1="1329.1816" x2="739.8115" y2="1118.4346" gradientTransform="matrix(-0.8869 0.4619 0.4619 0.8869 394.6168 -843.3057)">
	<stop  offset="0" style="stop-color:#1D71B8"/>
	<stop  offset="0.0464" style="stop-color:#1E77BD"/>
	<stop  offset="0.1952" style="stop-color:#228ACB"/>
	<stop  offset="0.3548" style="stop-color:#2A98D5"/>
	<stop  offset="0.5282" style="stop-color:#31A2DC"/>
	<stop  offset="0.7258" style="stop-color:#35A8E0"/>
	<stop  offset="1" style="stop-color:#36A9E1"/>
</linearGradient>
<path fill="url(#SVGID_3_)" d="M267.735,610.693c-0.006,0.004-0.006,0.004-0.015,0.004c-0.015-0.144-0.028-0.301-0.037-0.449
	c-0.165-1.418-0.302-2.832-0.386-4.229c-2.6-27.994-2.855-82.033-12.206-115.671c22.196,26.946,66.318,58.141,87.761,76.33
	c1.101,0.866,2.177,1.789,3.253,2.737c0.115,0.091,0.227,0.19,0.342,0.285c0,0.008-0.008,0.008-0.012,0.012
	c7.33,6.556,13.886,14.888,18.985,24.68c17.222,33.065,11.396,70.171-12.999,82.874c-24.399,12.71-58.133-3.798-75.35-36.862
	C271.97,630.606,268.91,620.456,267.735,610.693z"/>
<g>
	<path fill="#D3DEE8" d="M118.418,332.162c1.297,0,2.593,0.033,3.882,0.103c-0.46-4.906-0.717-9.87-0.717-14.892
		c0-88.646,71.861-160.511,160.515-160.511c65.617,0,122.005,39.398,146.883,95.815c4.292-0.495,8.642-0.775,13.057-0.775
		c62.404,0,112.995,50.587,112.995,112.991c0,62.403-50.591,112.999-112.995,112.999H118.418c-40.245,0-72.869-32.628-72.869-72.867
		C45.549,364.782,78.173,332.162,118.418,332.162z"/>
	<defs>
		<filter id="Adobe_OpacityMaskFilter" filterUnits="userSpaceOnUse" x="164.699" y="168.225" width="234.786" height="153.102">
			<feFlood  style="flood-color:white;flood-opacity:1" result="back"/>
			<feBlend  in="SourceGraphic" in2="back" mode="normal"/>
		</filter>
	</defs>
	<mask maskUnits="userSpaceOnUse" x="164.699" y="168.225" width="234.786" height="153.102" id="SVGID_4_">
		<g filter="url(#Adobe_OpacityMaskFilter)">
			<defs>
				
					<filter id="Adobe_OpacityMaskFilter_1_" filterUnits="userSpaceOnUse" x="164.699" y="168.225" width="234.786" height="153.102">
					<feFlood  style="flood-color:white;flood-opacity:1" result="back"/>
					<feBlend  in="SourceGraphic" in2="back" mode="normal"/>
				</filter>
			</defs>
			<mask maskUnits="userSpaceOnUse" x="164.699" y="168.225" width="234.786" height="153.102" id="SVGID_4_">
				<g filter="url(#Adobe_OpacityMaskFilter_1_)">
				</g>
			</mask>
			
				<linearGradient id="SVGID_5_" gradientUnits="userSpaceOnUse" x1="514.2813" y1="321.3271" x2="514.2813" y2="168.2251" gradientTransform="matrix(-1 0 0 1 796.373 0)">
				<stop  offset="0" style="stop-color:#000000"/>
				<stop  offset="1" style="stop-color:#808080"/>
			</linearGradient>
			<path mask="url(#SVGID_4_)" fill="url(#SVGID_5_)" d="M164.699,244.778c0,42.276,52.558,76.549,117.398,76.549
				c64.83,0,117.388-34.273,117.388-76.549s-52.558-76.553-117.388-76.553C217.257,168.225,164.699,202.502,164.699,244.778z"/>
		</g>
	</mask>
	
		<linearGradient id="SVGID_6_" gradientUnits="userSpaceOnUse" x1="514.2813" y1="321.3271" x2="514.2813" y2="168.2251" gradientTransform="matrix(-1 0 0 1 796.373 0)">
		<stop  offset="0" style="stop-color:#F2F2F2"/>
		<stop  offset="1" style="stop-color:#F2F2F2"/>
	</linearGradient>
	<path fill="url(#SVGID_6_)" d="M164.699,244.778c0,42.276,52.558,76.549,117.398,76.549c64.83,0,117.388-34.273,117.388-76.549
		s-52.558-76.553-117.388-76.553C217.257,168.225,164.699,202.502,164.699,244.778z"/>
	
		<linearGradient id="SVGID_7_" gradientUnits="userSpaceOnUse" x1="496.0791" y1="477.4766" x2="496.0791" y2="339.3325" gradientTransform="matrix(-1 0 0 1 796.373 0)">
		<stop  offset="0" style="stop-color:#D3DEE8"/>
		<stop  offset="1" style="stop-color:#A8D4E0"/>
	</linearGradient>
	<path fill="url(#SVGID_7_)" d="M118.418,448.443c27.114,0,50.756-14.822,63.3-36.792c14.125,28.353,47.124,48.246,85.593,48.246
		c47.177,0,86.118-29.928,92.1-68.691c20.631,22.115,49.998,35.951,82.626,35.951c53.75,0,98.706-37.542,110.143-87.824
		c1.839,8.089,2.853,16.5,2.853,25.153c0,62.403-50.591,112.991-112.995,112.991H118.418c-40.245,0-72.863-32.625-72.863-72.863
		c0-4.972,0.499-9.821,1.445-14.517C53.73,423.381,83.143,448.443,118.418,448.443z"/>
	<path fill="#FFFFFF" d="M33.089,405.025c0,47.042,38.276,85.322,85.329,85.322h0.043h323.576c2.437,0,4.845-0.086,7.252-0.227
		c65.81-3.769,118.203-58.486,118.203-125.228c0-69.173-56.277-125.45-125.455-125.45c-1.851,0-3.689,0.058-5.528,0.14
		c-28.522-56.401-87.009-95.176-154.411-95.176c-95.382,0-172.979,77.592-172.979,172.966c0,0.952,0.056,1.888,0.072,2.833
		C66.468,324.819,33.089,361.092,33.089,405.025z M45.555,405.025c0-40.243,32.618-72.863,72.863-72.863
		c21.967,0,41.647,9.734,55.007,25.112c3.016,3.472,5.706,7.228,8.033,11.23c3.317,5.719,5.858,11.932,7.533,18.508
		c2.504,9.107,13.82,6.246,12.552-1.184c-2.449-10.604-6.875-20.458-12.874-29.152c0.008-0.013,0.015-0.021,0.021-0.029
		c-2.42-3.509-5.098-6.819-7.996-9.92c-0.008,0.008-0.023,0.025-0.029,0.029c-10.697-11.424-24.486-19.917-40.023-24.114
		c-0.029-0.008-0.049-0.017-0.07-0.025c-1.313-0.351-2.645-0.668-3.98-0.957c-0.118-0.029-0.237-0.062-0.367-0.086
		c-1.247-0.268-2.504-0.495-3.766-0.705c-0.208-0.033-0.415-0.078-0.623-0.115c-1.202-0.19-2.42-0.342-3.636-0.479
		c-0.264-0.033-0.532-0.074-0.796-0.107c-1.233-0.128-2.47-0.214-3.723-0.289c-0.251-0.025-0.493-0.05-0.744-0.058
		c-1.497-0.083-3.007-0.124-4.519-0.124c1.08,0,2.154,0.049,3.222,0.083c-0.006-0.8-0.058-1.6-0.058-2.408
		c0-88.646,71.861-160.511,160.515-160.511c60.938,0,113.949,33.968,141.136,84.007c-0.269,0.033-0.536,0.066-0.8,0.107
		c-1.732,0.272-3.455,0.577-5.162,0.923c-0.898,0.182-1.781,0.388-2.68,0.59c-0.878,0.198-1.757,0.392-2.631,0.606
		c-1.039,0.255-2.062,0.536-3.096,0.808c-0.656,0.186-1.323,0.379-1.983,0.569c-1.146,0.334-2.284,0.672-3.405,1.035
		c-0.289,0.095-0.569,0.194-0.854,0.285c-4.333,1.443-8.555,3.096-12.661,4.976c-0.009,0.004-0.029,0.013-0.033,0.013
		c-30.308,13.894-54.158,39.509-65.719,71.012c-0.008-0.004-0.016-0.008-0.024-0.016c-1.443,3.958-2.688,8.015-3.743,12.146
		c0.008,0,0.017,0,0.017,0c-0.603,2.366-1.126,4.757-1.592,7.173c-0.074,0.363-0.124,0.73-0.198,1.097
		c-0.358,1.975-0.676,3.966-0.948,5.974c-0.078,0.619-0.164,1.241-0.234,1.868c-0.215,1.855-0.388,3.719-0.532,5.595
		c-0.041,0.623-0.099,1.241-0.132,1.859c-0.152,2.453-0.239,4.918-0.239,7.405c0,0.52,0.028,1.031,0.033,1.55
		c0.017,1.22,0.05,2.432,0.095,3.648c0.078,1.621,0.182,3.241,0.309,4.853c1.18,9.338,13.977,7.001,12.402-1.175
		c-0.231-2.931-0.38-5.883-0.38-8.876c0-7.986,0.842-15.774,2.421-23.294c0.915-4.403,2.114-8.708,3.541-12.905
		c15.098-44.642,57.291-76.792,107.033-76.792c62.404,0,112.995,50.587,112.995,112.991c0,62.403-50.591,112.999-112.995,112.999
		h-54.479h-0.086H162.83h-0.145h-44.267C78.173,477.893,45.555,445.265,45.555,405.025z M113.784,319.831
		c-0.042,0-0.083,0.004-0.128,0.008C113.702,319.835,113.743,319.831,113.784,319.831z"/>
	<defs>
		<filter id="Adobe_OpacityMaskFilter_2_" filterUnits="userSpaceOnUse" x="358.954" y="258.994" width="163.5" height="110.575">
			<feFlood  style="flood-color:white;flood-opacity:1" result="back"/>
			<feBlend  in="SourceGraphic" in2="back" mode="normal"/>
		</filter>
	</defs>
	<mask maskUnits="userSpaceOnUse" x="358.954" y="258.994" width="163.5" height="110.575" id="SVGID_8_">
		<g filter="url(#Adobe_OpacityMaskFilter_2_)">
			<defs>
				<filter id="Adobe_OpacityMaskFilter_3_" filterUnits="userSpaceOnUse" x="358.954" y="258.994" width="163.5" height="110.575">
					<feFlood  style="flood-color:white;flood-opacity:1" result="back"/>
					<feBlend  in="SourceGraphic" in2="back" mode="normal"/>
				</filter>
			</defs>
			<mask maskUnits="userSpaceOnUse" x="358.954" y="258.994" width="163.5" height="110.575" id="SVGID_8_">
				<g filter="url(#Adobe_OpacityMaskFilter_3_)">
				</g>
			</mask>
			
				<linearGradient id="SVGID_9_" gradientUnits="userSpaceOnUse" x1="355.6689" y1="369.5688" x2="355.6689" y2="258.9937" gradientTransform="matrix(-1 0 0 1 796.373 0)">
				<stop  offset="0" style="stop-color:#000000"/>
				<stop  offset="1" style="stop-color:#808080"/>
			</linearGradient>
			<path mask="url(#SVGID_8_)" fill="url(#SVGID_9_)" d="M358.954,314.281c0,30.534,36.598,55.288,81.752,55.288
				c45.145,0,81.748-24.753,81.748-55.288c0-30.534-36.604-55.288-81.748-55.288C395.552,258.994,358.954,283.748,358.954,314.281z"
				/>
		</g>
	</mask>
	
		<linearGradient id="SVGID_10_" gradientUnits="userSpaceOnUse" x1="355.6689" y1="369.5688" x2="355.6689" y2="258.9937" gradientTransform="matrix(-1 0 0 1 796.373 0)">
		<stop  offset="0" style="stop-color:#F2F2F2"/>
		<stop  offset="1" style="stop-color:#F2F2F2"/>
	</linearGradient>
	<path fill="url(#SVGID_10_)" d="M358.954,314.281c0,30.534,36.598,55.288,81.752,55.288c45.145,0,81.748-24.753,81.748-55.288
		c0-30.534-36.604-55.288-81.748-55.288C395.552,258.994,358.954,283.748,358.954,314.281z"/>
	<defs>
		<filter id="Adobe_OpacityMaskFilter_4_" filterUnits="userSpaceOnUse" x="64.951" y="339.831" width="105.03" height="65.492">
			<feFlood  style="flood-color:white;flood-opacity:1" result="back"/>
			<feBlend  in="SourceGraphic" in2="back" mode="normal"/>
		</filter>
	</defs>
	<mask maskUnits="userSpaceOnUse" x="64.951" y="339.831" width="105.03" height="65.492" id="SVGID_11_">
		<g filter="url(#Adobe_OpacityMaskFilter_4_)">
			<defs>
				<filter id="Adobe_OpacityMaskFilter_5_" filterUnits="userSpaceOnUse" x="64.951" y="339.831" width="105.03" height="65.492">
					<feFlood  style="flood-color:white;flood-opacity:1" result="back"/>
					<feBlend  in="SourceGraphic" in2="back" mode="normal"/>
				</filter>
			</defs>
			<mask maskUnits="userSpaceOnUse" x="64.951" y="339.831" width="105.03" height="65.492" id="SVGID_11_">
				<g filter="url(#Adobe_OpacityMaskFilter_5_)">
				</g>
			</mask>
			
				<linearGradient id="SVGID_12_" gradientUnits="userSpaceOnUse" x1="678.9072" y1="405.3223" x2="678.9072" y2="339.8306" gradientTransform="matrix(-1 0 0 1 796.373 0)">
				<stop  offset="0" style="stop-color:#000000"/>
				<stop  offset="1" style="stop-color:#808080"/>
			</linearGradient>
			<path mask="url(#SVGID_11_)" fill="url(#SVGID_12_)" d="M64.951,372.579c0,18.083,23.513,32.744,52.513,32.744
				c29.006,0,52.517-14.661,52.517-32.744c0-18.083-23.511-32.748-52.517-32.748C88.463,339.831,64.951,354.496,64.951,372.579z"/>
		</g>
	</mask>
	
		<linearGradient id="SVGID_13_" gradientUnits="userSpaceOnUse" x1="678.9072" y1="405.3223" x2="678.9072" y2="339.8306" gradientTransform="matrix(-1 0 0 1 796.373 0)">
		<stop  offset="0" style="stop-color:#F2F2F2"/>
		<stop  offset="1" style="stop-color:#F2F2F2"/>
	</linearGradient>
	<path fill="url(#SVGID_13_)" d="M64.951,372.579c0,18.083,23.513,32.744,52.513,32.744c29.006,0,52.517-14.661,52.517-32.744
		c0-18.083-23.511-32.748-52.517-32.748C88.463,339.831,64.951,354.496,64.951,372.579z"/>
</g>
</svg>
